<svg width="156" height="108" viewBox="0 0 156 108" fill="none" xmlns="http://www.w3.org/2000/svg">
<g filter="url(#filter0_d)">
<rect x="49.4478" y="41.2475" width="20.284" height="10.1519" rx="6.2643" fill="white"/>
</g>
<g clip-path="url(#clip0)">
<path d="M66.004 60.3478C66.4315 59.0546 67.2564 57.9294 68.3611 57.1328C69.4658 56.3362 70.7939 55.9088 72.1558 55.9116C73.6997 55.9116 75.0956 56.4597 76.1919 57.3568L79.382 54.1676C77.438 52.473 74.9467 51.427 72.1558 51.427C67.8348 51.427 64.1148 53.8918 62.3261 57.5021L66.004 60.3478Z" fill="#EA4335"/>
<path d="M75.8466 67.8827C74.8508 68.5249 73.5864 68.8675 72.1558 68.8675C70.7993 68.8703 69.4762 68.4463 68.374 67.6555C67.2717 66.8648 66.4461 65.7474 66.0141 64.4615L62.3234 67.2633C63.2289 69.0961 64.6303 70.6383 66.3684 71.7146C68.1064 72.7909 70.1115 73.3582 72.1558 73.3521C74.8353 73.3521 77.395 72.3992 79.3125 70.6114L75.8475 67.8827H75.8466Z" fill="#34A853"/>
<path d="M79.3125 70.6115C81.3178 68.7405 82.6196 65.956 82.6196 62.3896C82.6196 61.7409 82.52 61.0439 82.3711 60.3962H72.1558V64.6323H78.0354C77.7458 66.0565 76.9665 67.1592 75.8475 67.8827L79.3125 70.6115Z" fill="#4A90E2"/>
<path d="M66.0141 64.4615C65.7906 63.7936 65.677 63.0938 65.6779 62.3895C65.6779 61.6752 65.7921 60.9891 66.004 60.3478L62.3261 57.5021C61.5737 59.021 61.1858 60.6945 61.1933 62.3895C61.1933 64.1436 61.5998 65.7971 62.3233 67.2633L66.0141 64.4615Z" fill="#FBBC05"/>
</g>
<defs>
<filter id="filter0_d" x="0.899428" y="0.529593" width="155.041" height="151.909" filterUnits="userSpaceOnUse" color-interpolation-filters="sRGB">
<feFlood flood-opacity="0" result="BackgroundImageFix"/>
<feColorMatrix in="SourceAlpha" type="matrix" values="0 0 0 0 0 0 0 0 0 0 0 0 0 0 0 0 0 0 127 0"/>
<feOffset dx="7.83037" dy="15.6607"/>
<feGaussianBlur stdDeviation="28.1894"/>
<feColorMatrix type="matrix" values="0 0 0 0 0.17369 0 0 0 0 0.1683 0 0 0 0 0.4917 0 0 0 0.1 0"/>
<feBlend mode="normal" in2="BackgroundImageFix" result="effect1_dropShadow"/>
<feBlend mode="normal" in="SourceGraphic" in2="effect1_dropShadow" result="shape"/>
</filter>
<clipPath id="clip0">
<rect x="61.1933" y="51.427" width="21.925" height="21.925" rx="6.2643" fill="white"/>
</clipPath>
</defs>
</svg>
